<?xml version="1.0" encoding="UTF-8"?> 
<svg version="1.1" xmlns="http://www.w3.org/2000/svg" width="27" height="30">
  <path d="M0 0 C8.91 0 17.82 0 27 0 C27 9.9 27 19.8 27 30 C18.09 30 9.18 30 0 30 C0 20.1 0 10.2 0 0 Z " fill="#FCFCFC" transform="translate(0,0)"/>
  <path d="M0 0 C2.75329021 1.79562405 4.52627461 3.05254922 6 6 C6.16796875 8.05859375 6.16796875 8.05859375 6.1875 10.4375 C6.20167969 11.21996094 6.21585938 12.00242187 6.23046875 12.80859375 C6 15 6 15 4 18 C3.34 18 2.68 18 2 18 C1.566875 17.175 1.13375 16.35 0.6875 15.5 C0.130625 14.675 -0.42625 13.85 -1 13 C-3.54290625 12.41649495 -3.54290625 12.41649495 -6 13 C-7.95216435 14.95216435 -8.84826645 16.53199953 -10 19 C-12.280861 16.00636994 -13.86326772 13.72923885 -14.5625 10 C-13.76917613 5.76893936 -11.99780451 4.0691808 -9 1 C-5.89951072 -0.55024464 -3.42105782 -0.28992015 0 0 Z " fill="#4A90E2" transform="translate(17,5)"/>
  <path d="M0 0 C2.25583268 1.86689601 2.91449219 3.26115906 3.25 6.16015625 C3.41187402 12.38218897 3.41187402 12.38218897 1 16 C0.34 16 -0.32 16 -1 16 C-4.16400705 11.49737458 -4 8.32999947 -4 3 C-5.32 2.67 -6.64 2.34 -8 2 C-8 1.34 -8 0.68 -8 0 C-4.64106891 -1.1196437 -3.32285646 -1.07992835 0 0 Z " fill="#2A82D7" transform="translate(20,7)"/>
  <path d="M0 0 C2.5 0.125 2.5 0.125 3.5 1.125 C3.625 3.625 3.625 3.625 3.5 6.125 C2.5 7.125 2.5 7.125 0 7.25 C-2.5 7.125 -2.5 7.125 -3.5 6.125 C-3.625 3.625 -3.625 3.625 -3.5 1.125 C-2.5 0.125 -2.5 0.125 0 0 Z " fill="#80C1E3" transform="translate(13.5,8.875)"/>
</svg>
