<?xml version="1.0" encoding="UTF-8"?>
<svg version="1.1" xmlns="http://www.w3.org/2000/svg" width="30" height="30">
  <path d="M0 0 C9.9 0 19.8 0 30 0 C30 9.9 30 19.8 30 30 C20.1 30 10.2 30 0 30 C0 20.1 0 10.2 0 0 Z " fill="#D0E2F2" transform="translate(0,0)"/>
  <path d="M0 0 C2.92937654 1.81310142 5.43647949 3.87295899 7 7 C7.23300971 12.3592233 7.23300971 12.3592233 6.25 15.0625 C5.74072416 17.28988742 5.74072416 17.28988742 7.9375 19.75 C8.9584375 20.86375 8.9584375 20.86375 10 22 C7.80906091 21.53051305 6.1482911 21.09532999 4.25 19.875 C1.78485175 18.69197603 1.78485175 18.69197603 -1.875 19.6875 C-5.50552165 20.24395378 -5.96058095 20.02221801 -9.4375 18.0625 C-12.13445192 14.83931355 -13.06351118 13.10831557 -13.3125 9 C-12.73436389 5.2999289 -10.6645237 3.54059237 -8 1 C-5.09704195 -0.45147903 -3.22738221 -0.37239025 0 0 Z " fill="#A6B9D6" transform="translate(17,4)"/>
  <path d="M0 0 C2.92937654 1.81310142 5.43647949 3.87295899 7 7 C7.23300971 12.3592233 7.23300971 12.3592233 6.25 15.0625 C5.74072416 17.28988742 5.74072416 17.28988742 7.9375 19.75 C8.9584375 20.86375 8.9584375 20.86375 10 22 C7.80906091 21.53051305 6.1482911 21.09532999 4.25 19.875 C1.78485175 18.69197603 1.78485175 18.69197603 -1.875 19.6875 C-5.50552165 20.24395378 -5.96058095 20.02221801 -9.4375 18.0625 C-12.13445192 14.83931355 -13.06351118 13.10831557 -13.3125 9 C-12.73436389 5.2999289 -10.6645237 3.54059237 -8 1 C-5.09704195 -0.45147903 -3.22738221 -0.37239025 0 0 Z M-11 7 C-11.83333333 10 -11.83333333 10 -11 13 C-8.50915752 16.36996335 -7.11411135 17.81810427 -2.9375 18.5 C0.42877241 17.92701746 1.79003464 17.6192182 4 15 C4.96988093 12.26777446 5.32575603 9.8868724 5 7 C2.60540961 3.51695943 1.14822958 2.2392145 -3 1.375 C-7.0743356 2.22381992 -8.54405875 3.67725596 -11 7 Z " fill="#8A9BC4" transform="translate(17,4)"/>
  <path d="M0 0 C4.14822958 0.8642145 5.60540961 2.14195943 8 5.625 C8.32575603 8.5118724 7.96988093 10.89277446 7 13.625 C4.79003464 16.2442182 3.42877241 16.55201746 0.0625 17.125 C-4.11411135 16.44310427 -5.50915752 14.99496335 -8 11.625 C-8.625 8.625 -8.625 8.625 -8 5.625 C-5.54405875 2.30225596 -4.0743356 0.84881992 0 0 Z M-4.875 4.25 C-6.38776998 7.44362551 -5.94757993 9.27202485 -5 12.625 C-4.34 13.285 -3.68 13.945 -3 14.625 C0.52894948 14.53756309 0.52894948 14.53756309 4 13.625 C6.14762184 10.40356724 6.561068 9.3654533 6 5.625 C3.88269813 3.35086095 2.49656188 2.70977886 -0.5625 2.1875 C-3.09512096 2.42773857 -3.09512096 2.42773857 -4.875 4.25 Z " fill="#4E6F9A" transform="translate(14,5.375)"/>
  <path d="M0 0 C2 2 2 2 2.1875 4.875 C2 8 2 8 1.25 10.0625 C0.74072416 12.28988742 0.74072416 12.28988742 2.9375 14.75 C3.618125 15.4925 4.29875 16.235 5 17 C2.80906091 16.53051305 1.1482911 16.09532999 -0.75 14.875 C-4.29418039 13.49670763 -7.2839796 14.38066327 -11 15 C-11 14.34 -11 13.68 -11 13 C-9.72125 12.7525 -8.4425 12.505 -7.125 12.25 C-3.8850657 11.47152784 -3.8850657 11.47152784 -1.5 9.25 C-0.88024104 6.4610847 -0.93669995 3.84850234 -1 1 C-0.67 0.67 -0.34 0.34 0 0 Z " fill="#6B8AA5" transform="translate(22,9)"/>
  <path d="M0 0 C0.66 0 1.32 0 2 0 C1.6875 1.875 1.6875 1.875 1 4 C-2.4352048 6.29013653 -3.985331 6.17842973 -8 6 C-5.61426621 4.10786631 -3.92824652 2.97608217 -1 2 C-0.67 1.34 -0.34 0.68 0 0 Z " fill="#A9C1D7" transform="translate(19,16)"/>
</svg>
