<?xml version="1.0" encoding="UTF-8"?>
<svg version="1.1" xmlns="http://www.w3.org/2000/svg" width="30" height="29">
  <path d="M0 0 C9.9 0 19.8 0 30 0 C30 9.57 30 19.14 30 29 C20.1 29 10.2 29 0 29 C0 19.43 0 9.86 0 0 Z " fill="#ADD8E6" transform="translate(0,0)"/>
  <path d="M0 0 C1.32 0.66 2.64 1.32 4 2 C4 2.99 4 3.98 4 5 C5.32 5.33 6.64 5.66 8 6 C8 7.32 8 8.64 8 10 C7.01 10.33 6.02 10.66 5 11 C4.731875 11.556875 4.46375 12.11375 4.1875 12.6875 C2.42097496 16.12757508 -0.21136826 18.33261312 -3 21 C-6.81684226 19.44499019 -9.19195732 16.96404505 -12 14 C-10.42586583 9.90725115 -7.45897623 6.64043987 -4 4 C-3.01 4 -2.02 4 -1 4 C-1 3.01 -1 2.02 -1 1 C-0.67 0.67 -0.34 0.34 0 0 Z " fill="#6495ED" transform="translate(16,5)"/>
  <path d="M0 0 C1.32 0.66 2.64 1.32 4 2 C4 2.99 4 3.98 4 5 C5.32 5.33 6.64 5.66 8 6 C8 7.32 8 8.64 8 10 C7.01 10 6.02 10 5 10 C3.97980427 10.9793879 2.97850195 11.97895449 2 13 C0.33333333 13 -1.33333333 13 -3 13 C-1.35 11.68 0.3 10.36 2 9 C1.34 8.34 0.68 7.68 0 7 C-1.98 9.31 -3.96 11.62 -6 14 C-6 10.8180056 -5.58913558 9.67643887 -4 7 C-3.46375 6.484375 -2.9275 5.96875 -2.375 5.4375 C-0.65438868 3.97021721 -0.65438868 3.97021721 -1 1 C-0.67 0.67 -0.34 0.34 0 0 Z " fill="#4169E1" transform="translate(16,5)"/>
  <path d="M0 0 C4.75 0.75 4.75 0.75 7 3 C6.625 5.625 6.625 5.625 6 8 C4 8 2 8 0 8 C1.65 6.68 3.3 5.36 5 4 C4.34 3.34 3.68 2.68 3 2 C1.02 4.31 -0.96 6.62 -3 9 C-3 5.85331714 -2.47264871 4.68541824 -1 2 C-0.67 1.34 -0.34 0.68 0 0 Z " fill="#1E90FF" transform="translate(13,10)"/>
  <path d="M0 0 C1.65 0.33 3.3 0.66 5 1 C4.207689 6.13328252 0.90554436 7.87556452 -3 11 C-2.01 7.37 -1.02 3.74 0 0 Z " fill="#4682B4" transform="translate(6,4)"/>
  <path d="M0 0 C0.66 0.66 1.32 1.32 2 2 C-1.465 4.97 -1.465 4.97 -5 8 C-5 5 -5 5 -2.5 2.3125 C-1.675 1.549375 -0.85 0.78625 0 0 Z " fill="#87CEFA" transform="translate(10,8)"/>
  <path d="M0 0 C2.475 0.495 2.475 0.495 5 1 C4.67 2.32 4.34 3.64 4 5 C2.68 4.34 1.36 3.68 0 3 C0 2.01 0 1.02 0 0 Z " fill="#B0C4DE" transform="translate(6,4)"/>
</svg>
