<?xml version="1.0" encoding="UTF-8"?>
<svg version="1.1" xmlns="http://www.w3.org/2000/svg" width="31" height="31">
<path d="M0 0 C10.23 0 20.46 0 31 0 C31 10.23 31 20.46 31 31 C20.77 31 10.54 31 0 31 C0 20.77 0 10.54 0 0 Z " fill="#FBFCFC" transform="translate(0,0)"/>
<path d="M0 0 C1.5159375 0.061875 1.5159375 0.061875 3.0625 0.125 C5.08376284 0.125 7.10541874 0.08243189 9.125 0 C12.0625 0.125 12.0625 0.125 14.0625 2.125 C13.97935718 6.53156969 13.54153392 8.57226856 10.625 11.9375 C9.779375 12.659375 8.93375 13.38125 8.0625 14.125 C7.4025 14.785 6.7425 15.445 6.0625 16.125 C2.2083162 15.85919422 -0.14466642 13.6238511 -2.9375 11.125 C-5.23913882 7.67254176 -5.28240322 6.17761287 -4.9375 2.125 C-2.9375 0.125 -2.9375 0.125 0 0 Z " fill="#086EE0" transform="translate(8.9375,8.875)"/>
<path d="M0 0 C1.97909398 -0.02686553 3.95828971 -0.04633375 5.9375 -0.0625 C7.03964844 -0.07410156 8.14179688 -0.08570313 9.27734375 -0.09765625 C12 0 12 0 13 1 C13.04092937 3.33297433 13.04241723 5.66705225 13 8 C12.01 7.67 11.02 7.34 10 7 C10 6.34 10 5.68 10 5 C6.37 5 2.74 5 -1 5 C-0.67 3.35 -0.34 1.7 0 0 Z " fill="#97C2F0" transform="translate(13,3)"/>
<path d="M0 0 C0.94875 0.04125 1.8975 0.0825 2.875 0.125 C2.545 1.115 2.215 2.105 1.875 3.125 C3.195 4.445 4.515 5.765 5.875 7.125 C4.885 7.455 3.895 7.785 2.875 8.125 C2.875 7.465 2.875 6.805 2.875 6.125 C0.895 5.465 -1.085 4.805 -3.125 4.125 C-3.785 5.445 -4.445 6.765 -5.125 8.125 C-5.25 5.25 -5.25 5.25 -5.125 2.125 C-3.125 0.125 -3.125 0.125 0 0 Z " fill="#1174E3" transform="translate(9.125,8.875)"/>
<path d="M0 0 C2.875 2.5 2.875 2.5 5 5 C4.34 5 3.68 5 3 5 C2.67 5.99 2.34 6.98 2 8 C1.34 6.35 0.68 4.7 0 3 C-0.928125 3 -1.85625 3 -2.8125 3 C-4.875 3 -6.9375 3 -9 3 C-9.33 2.34 -9.66 1.68 -10 1 C-6.57113346 -0.05503586 -3.57321156 -0.43753611 0 0 Z " fill="#E9F3FB" transform="translate(21,7)"/>
<path d="M0 0 C-0.99 0.495 -0.99 0.495 -2 1 C-3.13350534 3.01669827 -3.13350534 3.01669827 -4 5 C-5.32 4.34 -6.64 3.68 -8 3 C-5.53387212 -0.1151089 -3.89156016 -0.31553191 0 0 Z " fill="#A4CAF3" transform="translate(25,3)"/>
</svg>
