<?xml version="1.0" encoding="UTF-8"?>
<svg version="1.1" xmlns="http://www.w3.org/2000/svg" width="29" height="30">
<path d="M0 0 C9.57 0 19.14 0 29 0 C29 9.9 29 19.8 29 30 C19.43 30 9.86 30 0 30 C0 20.1 0 10.2 0 0 Z " fill="#FCFCFC" transform="translate(0,0)"/>
<path d="M0 0 C2.77141717 -0.08089542 5.54047819 -0.14044062 8.3125 -0.1875 C9.09818359 -0.21263672 9.88386719 -0.23777344 10.69335938 -0.26367188 C11.45068359 -0.27333984 12.20800781 -0.28300781 12.98828125 -0.29296875 C14.03302612 -0.31653442 14.03302612 -0.31653442 15.09887695 -0.34057617 C17.60679907 0.10870485 18.47136822 0.99515529 20 3 C20.39415803 6.15326426 20.58260835 8.11075568 18.8125 10.8125 C14.87088701 13.39493609 10.25593858 13.11270262 5.6875 13.0625 C3.810625 13.041875 1.93375 13.02125 0 13 C0 8.71 0 4.42 0 0 Z " fill="#AFB0B4" transform="translate(4,10)"/>
<path d="M0 0 C2.97 0 5.94 0 9 0 C8.67 0.66 8.34 1.32 8 2 C10.475 2.99 10.475 2.99 13 4 C12.67 5.65 12.34 7.3 12 9 C8.125 8.125 8.125 8.125 7 7 C6.01 8.98 5.02 10.96 4 13 C2.68 13 1.36 13 0 13 C0 8.71 0 4.42 0 0 Z " fill="#BFC0C3" transform="translate(4,10)"/>
<path d="M0 0 C2.4814731 0.44791933 4.9596645 0.90773818 7.4375 1.375 C8.14455078 1.50132813 8.85160156 1.62765625 9.58007812 1.7578125 C11.40052 2.10622243 13.20271648 2.547043 15 3 C15.33 3.66 15.66 4.32 16 5 C10.39 5 4.78 5 -1 5 C-0.67 3.35 -0.34 1.7 0 0 Z " fill="#D7D7D9" transform="translate(7,3)"/>
<path d="M0 0 C6.15234375 -0.09765625 6.15234375 -0.09765625 8 0 C9 1 9 1 9.09765625 3.94140625 C9.08605469 5.13636719 9.07445312 6.33132813 9.0625 7.5625 C9.05347656 8.76003906 9.04445313 9.95757812 9.03515625 11.19140625 C9.02355469 12.11824219 9.01195312 13.04507812 9 14 C6.03 14 3.06 14 0 14 C0 13.67 0 13.34 0 13 C1.65 13 3.3 13 5 13 C5.33 12.01 5.66 11.02 6 10 C6.66 10 7.32 10 8 10 C8 8.02 8 6.04 8 4 C7.01 3.67 6.02 3.34 5 3 C5 2.34 5 1.68 5 1 C3.35 1 1.7 1 0 1 C0 0.67 0 0.34 0 0 Z " fill="#D6D6D8" transform="translate(16,9)"/>
<path d="M0 0 C1.98 0.495 1.98 0.495 4 1 C3.67 2.65 3.34 4.3 3 6 C1.68 5.67 0.36 5.34 -1 5 C-0.67 3.35 -0.34 1.7 0 0 Z " fill="#F4F5F6" transform="translate(13,13)"/>
<path d="M0 0 C-0.33 0.66 -0.66 1.32 -1 2 C-1.99 1.67 -2.98 1.34 -4 1 C-3.67 2.32 -3.34 3.64 -3 5 C-6.3 4.01 -9.6 3.02 -13 2 C-13 1.67 -13 1.34 -13 1 C-8.59085217 -0.10228696 -4.51617599 -0.07654536 0 0 Z " fill="#A9AAAC" transform="translate(21,10)"/>
<path d="M0 0 C0.99 1.32 1.98 2.64 3 4 C2 6 2 6 1 7 C1.99 7.66 2.98 8.32 4 9 C2.02 9 0.04 9 -2 9 C-1.34 6.03 -0.68 3.06 0 0 Z " fill="#AAACAF" transform="translate(10,14)"/>
</svg>
